<svg width="28" height="28" viewBox="0 0 28 28" fill="none" xmlns="http://www.w3.org/2000/svg">
<path fill-rule="evenodd" clip-rule="evenodd" d="M3.03834 16.4032V23.2083C3.03834 23.6453 3.40663 24 3.86042 24H5.62954C5.82423 24 6.01261 23.9335 6.16115 23.8123C6.30969 23.6911 6.40874 23.5231 6.44067 23.3382L6.87473 20.8333H21.1242L21.5571 23.3382C21.5891 23.5231 21.6881 23.6911 21.8367 23.8123C21.9852 23.9335 22.1736 24 22.3683 24H24.1385C24.3565 24 24.5656 23.9166 24.7198 23.7681C24.874 23.6197 24.9606 23.4183 24.9606 23.2083V16.4032C24.9606 15.1623 24.5792 13.9491 23.8645 12.9167L23.0095 11.6817C22.9332 11.5717 22.8679 11.4551 22.8144 11.3333H23.9039C24.0567 11.3333 24.2064 11.2923 24.3363 11.215C24.4662 11.1376 24.5712 11.0269 24.6394 10.8953L24.9134 10.3675C24.976 10.2469 25.0055 10.1129 24.9992 9.97821C24.9929 9.84354 24.9509 9.71264 24.8774 9.59794C24.8038 9.48323 24.7011 9.38852 24.5789 9.32277C24.4567 9.25701 24.319 9.22241 24.179 9.22222H22.3299L21.9901 7.59033C21.8867 7.09333 21.6369 6.63552 21.2705 6.27162C20.9041 5.90773 20.4366 5.65315 19.9239 5.53833C18.3214 5.17944 16.3462 5 13.9995 5C11.6516 5 9.67748 5.17944 8.07497 5.53833C7.5621 5.65297 7.09438 5.90747 6.72777 6.27138C6.36115 6.63528 6.11116 7.09319 6.0077 7.59033L5.66791 9.22222H3.82096C3.68097 9.22241 3.54334 9.25701 3.42113 9.32277C3.29892 9.38852 3.19617 9.48323 3.12261 9.59794C3.04906 9.71264 3.00714 9.84354 3.00084 9.97821C2.99453 10.1129 3.02404 10.2469 3.08657 10.3675L3.36059 10.8953C3.42874 11.0267 3.53353 11.1373 3.66323 11.2147C3.79293 11.2921 3.94242 11.3331 4.09499 11.3333H5.18562C5.13206 11.4551 5.06674 11.5717 4.99051 11.6817L4.13445 12.9167C3.41978 13.949 3.03834 15.1618 3.03834 16.4032ZM20.5334 11.3376C20.6089 11.7026 20.7342 12.0565 20.906 12.3899H7.09285C7.26494 12.0574 7.3899 11.7038 7.46553 11.3376L8.15827 8.00517C8.17872 7.90553 8.22859 7.8137 8.30188 7.74068C8.37518 7.66766 8.4688 7.61656 8.57151 7.5935C9.99426 7.27683 11.8072 7.11111 13.9995 7.11111C16.1917 7.11111 18.0046 7.27578 19.4274 7.59456C19.5302 7.61736 19.6239 7.66822 19.6974 7.74106C19.7709 7.81389 19.821 7.90559 19.8417 8.00517L20.5334 11.3376ZM6.87473 17.6667C7.31079 17.6667 7.72899 17.4999 8.03733 17.2029C8.34567 16.906 8.51889 16.5033 8.51889 16.0833C8.51889 15.6634 8.34567 15.2607 8.03733 14.9637C7.72899 14.6668 7.31079 14.5 6.87473 14.5C6.43867 14.5 6.02047 14.6668 5.71212 14.9637C5.40378 15.2607 5.23056 15.6634 5.23056 16.0833C5.23056 16.5033 5.40378 16.906 5.71212 17.2029C6.02047 17.4999 6.43867 17.6667 6.87473 17.6667ZM22.7683 16.0833C22.7683 16.5033 22.5951 16.906 22.2868 17.2029C21.9784 17.4999 21.5602 17.6667 21.1242 17.6667C20.6881 17.6667 20.2699 17.4999 19.9616 17.2029C19.6532 16.906 19.48 16.5033 19.48 16.0833C19.48 15.6634 19.6532 15.2607 19.9616 14.9637C20.2699 14.6668 20.6881 14.5 21.1242 14.5C21.5602 14.5 21.9784 14.6668 22.2868 14.9637C22.5951 15.2607 22.7683 15.6634 22.7683 16.0833Z" fill="#FFB6A6"/>
<circle cx="22" cy="8" r="5.5" fill="#FF8065" stroke="white"/>
<path d="M20.75 7.65362C21.1642 7.65362 21.5 7.28344 21.5 6.82681C21.5 6.37018 21.1642 6 20.75 6C20.3358 6 20 6.37018 20 6.82681C20 7.28344 20.3358 7.65362 20.75 7.65362Z" fill="white"/>
<path d="M23.4492 7.65362C23.8634 7.65362 24.1992 7.28344 24.1992 6.82681C24.1992 6.37018 23.8634 6 23.4492 6C23.035 6 22.6992 6.37018 22.6992 6.82681C22.6992 7.28344 23.035 7.65362 23.4492 7.65362Z" fill="white"/>
<path d="M19.5 9C20.0556 11.1126 23.3889 12.1689 24.5 9" stroke="white" stroke-linecap="round"/>
</svg>
