<svg width="22" height="22" viewBox="0 0 22 22" fill="none" xmlns="http://www.w3.org/2000/svg">
<path d="M20 22C21.1046 22 22 21.1046 22 20V11.6565C22 10.5519 21.1046 9.65649 20 9.65649H18.7647H6.14706H3.55882H2C0.895431 9.65649 0 10.5519 0 11.6565V20C0 21.1046 0.89543 22 2 22H20Z" fill="#FFB6A6"/>
<path d="M19.9853 6.34461C20.3239 5.90478 20.2395 5.27335 19.7973 4.93789L14.0247 0.558964C13.6088 0.24345 13.0202 0.300978 12.6732 0.69105L11.1775 2.37252L5.58789 8.65649H17.2212C17.8419 8.65649 18.4274 8.36833 18.806 7.87651L19.9853 6.34461Z" fill="#FF8065"/>
<path d="M4.58824 8.4L10.1779 2.11603L5.58432 0.377082C5.04465 0.17278 4.44453 0.466382 4.27461 1.01785L2.39885 7.10554C2.20069 7.74867 2.68155 8.4 3.35452 8.4H4.58824Z" fill="#FF8065"/>
</svg>
