<svg width="24" height="22" viewBox="0 0 24 22" fill="none" xmlns="http://www.w3.org/2000/svg">
<path d="M23.5007 8.25C23.5007 10.8119 22.0734 13.1011 19.834 14.6143C18.0906 15.7923 15.855 16.5 13.4173 16.5C7.84845 16.5 3.33398 12.8063 3.33398 8.25C3.33398 3.69365 7.84845 0 13.4173 0C18.9862 0 23.5007 3.69365 23.5007 8.25Z" fill="#FFB6A6"/>
<path d="M13.4173 16.5L18.2162 20.2705C18.8723 20.786 19.834 20.3186 19.834 19.4842V14.6143C18.0906 15.7923 15.855 16.5 13.4173 16.5Z" fill="#FFB6A6"/>
<path d="M7.91699 6.5C4.10465 6.50015 0.751192 9.06155 0.750977 12.5156C0.750977 14.3086 1.67883 15.8819 3.08398 16.959V19.9697C3.08428 21.0133 4.28765 21.597 5.10742 20.9512L8.18457 18.5264C11.8815 18.412 15.084 15.8891 15.084 12.5156C15.0838 9.06146 11.7295 6.5 7.91699 6.5Z" fill="#FF8065" stroke="white" stroke-width="1.5"/>
</svg>
